<?xml version="1.0" encoding="utf-8"?>
<!-- Generator: Adobe Illustrator 18.1.1, SVG Export Plug-In . SVG Version: 6.00 Build 0)  -->
<svg version="1.1" id="IPAD_1_" xmlns="http://www.w3.org/2000/svg" xmlns:xlink="http://www.w3.org/1999/xlink" x="0px" y="0px"
	 viewBox="0 0 37 42" enable-background="new 0 0 37 42" xml:space="preserve">
<path fill-rule="evenodd" clip-rule="evenodd" fill="#FFFFFF" d="M34.4,42H2.2C1,42,0,41,0,39.8V2.2C0,1,1,0,2.2,0h32.2
	c1.2,0,2.2,1,2.2,2.2v37.7C36.6,41,35.6,42,34.4,42z M18.3,40.5c0.8,0,1.5-0.6,1.5-1.4c0-0.8-0.7-1.4-1.5-1.4
	c-0.8,0-1.5,0.6-1.5,1.4C16.8,39.9,17.5,40.5,18.3,40.5z M32.2,4.3H4.4v31.9h27.8V4.3z"/>
</svg>
