<?xml version="1.0" encoding="utf-8"?>
<!-- Generator: Adobe Illustrator 18.1.1, SVG Export Plug-In . SVG Version: 6.00 Build 0)  -->
<svg version="1.1" id="COMPUTER__x2F__OK_1_" xmlns="http://www.w3.org/2000/svg" xmlns:xlink="http://www.w3.org/1999/xlink"
	 x="0px" y="0px" viewBox="0 0 47 43" enable-background="new 0 0 47 43" xml:space="preserve">
<path fill-rule="evenodd" clip-rule="evenodd" fill="#FFFFFF" d="M44.2,35.1H33.1h-3v3.7l3,3v0.7H13.9v-0.7l3-3v-3.7h-3H2.7
	c-1.2,0-2.2-1-2.2-2.2V3.2C0.5,2,1.5,1,2.7,1h41.5c1.2,0,2.2,1,2.2,2.2v29.6C46.5,34.1,45.5,35.1,44.2,35.1z M43.5,3.9h-40v25.2h40
	V3.9z M19,14.3c0.6,0,1.2,0.2,1.6,0.7l0,0l1.4,1.4l4.4-4.4l0,0c0.4-0.4,1-0.7,1.6-0.7c1.2,0,2.2,1,2.2,2.2c0,0.6-0.2,1.2-0.7,1.6
	l0,0l-5.9,5.9l0,0c-0.4,0.4-1,0.7-1.6,0.7s-1.2-0.2-1.6-0.7l0,0l-3-3l0,0c-0.4-0.4-0.7-1-0.7-1.6C16.8,15.3,17.8,14.3,19,14.3z"/>
</svg>
