<?xml version="1.0" encoding="utf-8"?>
<!-- Generator: Adobe Illustrator 18.1.1, SVG Export Plug-In . SVG Version: 6.00 Build 0)  -->
<svg version="1.1" id="Forma_1_1_" xmlns="http://www.w3.org/2000/svg" xmlns:xlink="http://www.w3.org/1999/xlink" x="0px" y="0px"
	 viewBox="0 0 40 40" enable-background="new 0 0 40 40" xml:space="preserve">
<path fill="#FFFFFF" d="M22.2,22c-0.6-0.4-1.5-0.4-2.3-0.4h-2.4v4.9h2.2c0.8,0,1.8,0.1,2.5-0.4c0.6-0.4,1-1.3,1-2.1
	C23.2,23.3,22.8,22.4,22.2,22z M21.3,17.9c0.5-0.4,0.8-1.1,0.8-1.8c0-0.7-0.3-1.4-0.9-1.8c-0.6-0.4-1.8-0.3-2.6-0.3h-1v4.3h1.4
	C19.7,18.3,20.6,18.4,21.3,17.9z M33,0H7C3.1,0,0,3.1,0,7V33c0,3.9,3.1,7,7,7H33c3.9,0,7-3.1,7-7V7C40,3.1,36.9,0,33,0z M21.1,30.2
	h-8.2V10.5h8.9c2.6,0,5,1.6,5,4.5c0,2.2-1.3,3.8-2.8,4.3v0.1c2.4,0.5,4.1,1.8,4.1,4.9C28,27.1,26.1,30.2,21.1,30.2z"/>
</svg>
