<?xml version="1.0" encoding="utf-8"?>
<!-- Generator: Adobe Illustrator 18.1.1, SVG Export Plug-In . SVG Version: 6.00 Build 0)  -->
<svg version="1.1" id="Css_1_" xmlns="http://www.w3.org/2000/svg" xmlns:xlink="http://www.w3.org/1999/xlink" x="0px" y="0px"
	 viewBox="0 0 59 26" enable-background="new 0 0 59 26" xml:space="preserve">
<path fill="#FFFFFF" d="M12.4,4.7c-2,0-3.5,0.7-4.6,2.2c-1.1,1.5-1.6,3.6-1.6,6.3c0,5.6,2.1,8.4,6.3,8.4c1.8,0,3.9-0.4,6.4-1.3v4.4
	c-2.1,0.9-4.3,1.3-6.9,1.3c-3.6,0-6.4-1.1-8.3-3.3c-1.9-2.2-2.9-5.4-2.9-9.5c0-2.6,0.5-4.9,1.4-6.8c0.9-2,2.3-3.5,4.1-4.5
	c1.8-1,3.8-1.6,6.2-1.6c2.4,0,4.9,0.6,7.3,1.8L18,6.4c-0.9-0.4-1.9-0.8-2.8-1.2C14.2,4.9,13.3,4.7,12.4,4.7z M37.6,14.6
	c-0.9-1.1-2.5-2.2-4.8-3.4c-1.8-0.8-2.9-1.4-3.4-1.8c-0.5-0.3-0.8-0.7-1-1c-0.2-0.3-0.3-0.8-0.3-1.2c0-0.8,0.3-1.4,0.8-1.8
	c0.5-0.5,1.3-0.7,2.3-0.7c0.8,0,1.7,0.1,2.6,0.3c0.9,0.2,2,0.6,3.3,1.1l1.7-4.1c-1.3-0.6-2.5-1-3.7-1.3c-1.2-0.3-2.4-0.5-3.7-0.5
	c-2.6,0-4.7,0.6-6.2,1.9c-1.5,1.3-2.2,3-2.2,5.2c0,1.2,0.2,2.2,0.7,3.1c0.5,0.9,1.1,1.6,1.8,2.3c0.8,0.7,1.9,1.4,3.4,2.1
	c1.6,0.8,2.7,1.3,3.2,1.7c0.5,0.4,0.9,0.7,1.2,1.1c0.3,0.4,0.4,0.8,0.4,1.3c0,0.9-0.3,1.5-0.9,2c-0.6,0.4-1.5,0.7-2.7,0.7
	c-1,0-2-0.2-3.2-0.5c-1.2-0.3-2.6-0.8-4.3-1.6v4.9c2.1,1,4.4,1.5,7.1,1.5c2.9,0,5.2-0.6,6.8-1.9c1.6-1.3,2.4-3.1,2.4-5.3
	C38.9,17.1,38.5,15.7,37.6,14.6z M56.9,14.6c-0.9-1.1-2.5-2.2-4.8-3.4c-1.8-0.8-2.9-1.4-3.4-1.8c-0.5-0.3-0.8-0.7-1-1
	c-0.2-0.3-0.3-0.8-0.3-1.2c0-0.8,0.3-1.4,0.8-1.8c0.5-0.5,1.3-0.7,2.3-0.7c0.8,0,1.7,0.1,2.6,0.3c0.9,0.2,2,0.6,3.3,1.1l1.7-4.1
	c-1.3-0.6-2.5-1-3.7-1.3c-1.2-0.3-2.4-0.5-3.7-0.5c-2.6,0-4.7,0.6-6.2,1.9c-1.5,1.3-2.2,3-2.2,5.2c0,1.2,0.2,2.2,0.7,3.1
	c0.5,0.9,1.1,1.6,1.8,2.3c0.8,0.7,1.9,1.4,3.4,2.1c1.6,0.8,2.7,1.3,3.2,1.7c0.5,0.4,0.9,0.7,1.2,1.1C52.9,18,53,18.5,53,19
	c0,0.9-0.3,1.5-0.9,2c-0.6,0.4-1.5,0.7-2.7,0.7c-1,0-2-0.2-3.2-0.5c-1.2-0.3-2.6-0.8-4.3-1.6v4.9c2.1,1,4.4,1.5,7.1,1.5
	c2.9,0,5.2-0.6,6.8-1.9c1.6-1.3,2.4-3.1,2.4-5.3C58.2,17.1,57.8,15.7,56.9,14.6z"/>
</svg>
