<?xml version="1.0" encoding="utf-8"?>
<!-- Generator: Adobe Illustrator 18.1.1, SVG Export Plug-In . SVG Version: 6.00 Build 0)  -->
<svg version="1.1" id="PEN_3_1_" xmlns="http://www.w3.org/2000/svg" xmlns:xlink="http://www.w3.org/1999/xlink" x="0px" y="0px"
	 viewBox="0 0 43 43" enable-background="new 0 0 43 43" xml:space="preserve">
<path fill-rule="evenodd" clip-rule="evenodd" fill="#FFFFFF" d="M41.4,7.3l-4.4,4.4l-5.8-5.8l4.4-4.4c0.8-0.8,2.1-0.8,2.9,0
	l2.9,2.9C42.2,5.2,42.2,6.5,41.4,7.3z M10.9,26.2l5.8,5.8l-7.8,1.9L10.9,26.2z M35.6,13.1L18.2,30.6l-5.8-5.8L29.8,7.3L35.6,13.1z
	 M4.1,7.2v31.7h31.7V16l4.1-4.1v29c0,1.1-0.9,2.1-2.1,2.1H2.1C0.9,43,0,42.1,0,40.9V5.1C0,4,0.9,3.1,2.1,3.1h29.2l-4.1,4.1H4.1z"/>
</svg>
