<?xml version="1.0" encoding="utf-8"?>
<!-- Generator: Adobe Illustrator 18.1.1, SVG Export Plug-In . SVG Version: 6.00 Build 0)  -->
<svg version="1.1" id="LAYERS_1_" xmlns="http://www.w3.org/2000/svg" xmlns:xlink="http://www.w3.org/1999/xlink" x="0px" y="0px"
	 viewBox="0 0 49 43" enable-background="new 0 0 49 43" xml:space="preserve">
<path fill-rule="evenodd" clip-rule="evenodd" fill="#FFFFFF" d="M46.8,23.2L46.8,23.2l-21.8,9c0,0,0,0,0,0l0,0l0,0
	c-0.3,0.1-0.6,0.2-0.9,0.2c-0.3,0-0.6-0.1-0.9-0.2l0,0l0,0c0,0,0,0,0,0l-21.8-9l0,0C0.6,22.9,0,22.1,0,21.1c0-1.2,1-2.3,2.3-2.3
	c0.3,0,0.6,0.1,0.9,0.2l0,0l0,0c0,0,0,0,0,0l21,8.7l21-8.7c0,0,0,0,0,0l0,0l0,0c0.3-0.1,0.6-0.2,0.9-0.2c1.2,0,2.3,1,2.3,2.3
	C48.2,22.1,47.7,22.9,46.8,23.2z M46.8,13.4L46.8,13.4l-21.8,9c0,0,0,0,0,0l0,0l0,0c-0.3,0.1-0.6,0.2-0.9,0.2
	c-0.3,0-0.6-0.1-0.9-0.2l0,0l0,0c0,0,0,0,0,0l-21.8-9l0,0C0.6,13.1,0,12.3,0,11.3c0-0.9,0.6-1.7,1.4-2.1l0,0l21.8-9c0,0,0,0,0,0l0,0
	l0,0C23.5,0.1,23.8,0,24.1,0c0.3,0,0.6,0.1,0.9,0.2l0,0l0,0c0,0,0,0,0,0l21.8,9l0,0c0.8,0.3,1.4,1.1,1.4,2.1
	C48.2,12.3,47.7,13.1,46.8,13.4z M2.3,28.7c0.3,0,0.6,0.1,0.9,0.2l0,0l0,0c0,0,0,0,0,0l21,8.7l21-8.7c0,0,0,0,0,0l0,0l0,0
	c0.3-0.1,0.6-0.2,0.9-0.2c1.2,0,2.3,1,2.3,2.3c0,0.9-0.6,1.7-1.4,2.1l0,0l-21.8,9c0,0,0,0,0,0l0,0l0,0c-0.3,0.1-0.6,0.2-0.9,0.2
	c-0.3,0-0.6-0.1-0.9-0.2l0,0l0,0c0,0,0,0,0,0L1.4,33l0,0C0.6,32.7,0,31.9,0,30.9C0,29.7,1,28.7,2.3,28.7z"/>
</svg>
