<?xml version="1.0" encoding="utf-8"?>
<!-- Generator: Adobe Illustrator 18.1.1, SVG Export Plug-In . SVG Version: 6.00 Build 0)  -->
<svg version="1.1" id="CODE_1_" xmlns="http://www.w3.org/2000/svg" xmlns:xlink="http://www.w3.org/1999/xlink" x="0px" y="0px"
	 viewBox="0 0 57 44" enable-background="new 0 0 57 44" xml:space="preserve">
<path fill-rule="evenodd" clip-rule="evenodd" fill="#FFFFFF" d="M56.1,23.9L56.1,23.9L45.6,34.4l0,0c-0.5,0.5-1.1,0.7-1.8,0.7
	c-1.5,0-2.6-1.2-2.6-2.6c0-0.7,0.3-1.4,0.7-1.8l0,0l8.7-8.7l-8.6-8.7l0,0c-0.5-0.5-0.8-1.1-0.8-1.9c0-1.5,1.2-2.6,2.6-2.6
	c0.7,0,1.4,0.3,1.9,0.8l0,0L56,20c0.6,0.5,0.9,1.2,0.9,2C56.9,22.8,56.6,23.4,56.1,23.9z M24.3,41.3c-0.4,1-1.3,1.7-2.5,1.7
	c-1.5,0-2.6-1.2-2.6-2.6c0-0.3,0.1-0.7,0.2-0.9l14-36.8c0.4-1,1.3-1.7,2.5-1.7c1.5,0,2.6,1.2,2.6,2.6c0,0.3-0.1,0.7-0.2,0.9
	L24.3,41.3z M15.8,13.4L7.1,22l8.7,8.7l0,0c0.5,0.5,0.7,1.1,0.7,1.8c0,1.5-1.2,2.6-2.6,2.6c-0.7,0-1.4-0.3-1.8-0.7l0,0L1.6,23.9l0,0
	c-0.5-0.5-0.8-1.1-0.8-1.9c0-0.8,0.4-1.5,0.9-2L12.1,9.7l0,0c0.5-0.5,1.1-0.8,1.9-0.8c1.5,0,2.6,1.2,2.6,2.6
	C16.6,12.2,16.3,12.9,15.8,13.4L15.8,13.4z"/>
</svg>
