<?xml version="1.0" encoding="utf-8"?>
<!-- Generator: Adobe Illustrator 18.1.1, SVG Export Plug-In . SVG Version: 6.00 Build 0)  -->
<svg version="1.1" id="SPEECH_BUBBLES_1_" xmlns="http://www.w3.org/2000/svg" xmlns:xlink="http://www.w3.org/1999/xlink" x="0px"
	 y="0px" viewBox="0 0 44 43" enable-background="new 0 0 44 43" xml:space="preserve">
<path fill-rule="evenodd" clip-rule="evenodd" fill="#FFFFFF" d="M39,18.2c-0.7,0.4-0.8,3.5,3.2,5.4c0,0-5.6,0.9-9.1-3.6
	c-0.9,0.1-1.8,0.4-2.7,0.4c-7.6,0-12.2-4.4-12.2-9.8c0-5.5,4.6-9.9,12.2-9.9c7.6,0,13.6,4.4,13.6,9.9C43.9,13.6,42.1,16.4,39,18.2z
	 M15.6,11.5c0.3,6,5.7,11.1,13.8,11.6c0.9,0,1.8-0.2,2.7-0.3c0,0,0,0,0,0l0.2-0.1c2.4,2.4,5.3,2.9,7,2.9
	c-1.7,6.6-8.3,11.5-18.2,11.5c-1.4,0-2.8-0.4-4.1-0.6C11.7,43.3,3.2,42,3.2,42c6-2.8,5.9-7.5,4.8-8.2c-4.7-2.8-7.5-7-7.5-11.7
	C0.5,15,7.1,9,16.3,7.4C15.8,8.7,15.5,10.1,15.6,11.5z"/>
</svg>
