<?xml version="1.0" encoding="utf-8"?>
<!-- Generator: Adobe Illustrator 15.0.0, SVG Export Plug-In . SVG Version: 6.00 Build 0)  -->
<!DOCTYPE svg PUBLIC "-//W3C//DTD SVG 1.1//EN" "http://www.w3.org/Graphics/SVG/1.1/DTD/svg11.dtd">
<svg version="1.1" id="Layer_1" xmlns="http://www.w3.org/2000/svg" xmlns:xlink="http://www.w3.org/1999/xlink" x="0px" y="0px"
	 width="8px" height="13px" viewBox="0 0 8 13" enable-background="new 0 0 8 13" xml:space="preserve">
<path fill-rule="evenodd" clip-rule="evenodd" fill="rgba(255, 255, 255, .6)" d="M0.918,11.373l4.849-4.849L0.855,1.612h0
	c-0.161-0.167-0.26-0.393-0.26-0.643c0-0.511,0.415-0.925,0.926-0.925c0.25,0,0.476,0.099,0.642,0.26l0,0l5.553,5.553v0
	C7.891,6.025,8,6.261,8,6.522c0,0,0,0.001,0,0.002c0,0,0,0.001,0,0.002c0,0.262-0.109,0.498-0.283,0.666l0,0l-5.553,5.553
	l-0.002-0.002C1.995,12.902,1.77,13,1.521,13c-0.511,0-0.926-0.414-0.926-0.925C0.596,11.794,0.721,11.543,0.918,11.373z"/>
</svg>
