<?xml version="1.0" encoding="utf-8"?>
<!-- Generator: Adobe Illustrator 15.0.0, SVG Export Plug-In . SVG Version: 6.00 Build 0)  -->
<!DOCTYPE svg PUBLIC "-//W3C//DTD SVG 1.1//EN" "http://www.w3.org/Graphics/SVG/1.1/DTD/svg11.dtd">
<svg version="1.1" id="Layer_1" xmlns="http://www.w3.org/2000/svg" xmlns:xlink="http://www.w3.org/1999/xlink" x="0px" y="0px"
	 width="22px" height="16px" viewBox="0 0 22 16" enable-background="new 0 0 22 16" xml:space="preserve">
<path fill-rule="evenodd" clip-rule="evenodd" fill="#fff" d="M14.987,7.651l6.705-6.495C21.882,1.343,22,1.603,22,1.89v13.077
	c0,0.272-0.106,0.518-0.278,0.701L14.987,7.651z M0.319,1.126c0.183-0.165,0.423-0.269,0.689-0.269h19.959
	c0.266,0,0.506,0.104,0.688,0.269L10.988,9.461L0.319,1.126z M0.254,15.668c-0.171-0.184-0.278-0.429-0.278-0.701V1.89
	c0-0.288,0.118-0.547,0.308-0.734l6.705,6.495L0.254,15.668z M10.988,11.526l2.8-2.712l7.888,6.902
	C21.491,15.891,21.242,16,20.968,16H1.008c-0.274,0-0.523-0.109-0.708-0.284l7.888-6.902L10.988,11.526z"/>
</svg>
