<?xml version="1.0" encoding="utf-8"?>
<!-- Generator: Adobe Illustrator 18.1.1, SVG Export Plug-In . SVG Version: 6.00 Build 0)  -->
<svg version="1.1" width="45" height="58" id="PIN_2_1_" xmlns="http://www.w3.org/2000/svg" xmlns:xlink="http://www.w3.org/1999/xlink" x="0px" y="0px"
	 viewBox="0 0 45 58" enable-background="new 0 0 45 58" xml:space="preserve">
<g id="PIN_2">
	<g>
		<path fill-rule="evenodd" clip-rule="evenodd" fill="#656D82" d="M22.2,15c-4,0-7.2,3.2-7.2,7.2c0,4,3.2,7.2,7.2,7.2
			s7.2-3.2,7.2-7.2C29.4,18.2,26.2,15,22.2,15z M22.2,0.7c-11.9,0-21.5,9.6-21.5,21.5C0.7,34.1,22.2,58,22.2,58s21.5-23.9,21.5-35.8
			C43.7,10.3,34.1,0.7,22.2,0.7z M22.2,36.5c-7.9,0-14.3-6.4-14.3-14.3c0-7.9,6.4-14.3,14.3-14.3c7.9,0,14.3,6.4,14.3,14.3
			C36.5,30.1,30.1,36.5,22.2,36.5z"/>
	</g>
</g>
</svg>
