<?xml version="1.0" encoding="utf-8"?>
<!-- Generator: Adobe Illustrator 15.0.0, SVG Export Plug-In . SVG Version: 6.00 Build 0)  -->
<!DOCTYPE svg PUBLIC "-//W3C//DTD SVG 1.1//EN" "http://www.w3.org/Graphics/SVG/1.1/DTD/svg11.dtd">
<svg version="1.1" id="Layer_1" xmlns="http://www.w3.org/2000/svg" xmlns:xlink="http://www.w3.org/1999/xlink" x="0px" y="0px"
	 width="51px" height="51px" viewBox="0 0 51 51" enable-background="new 0 0 51 51" xml:space="preserve">
<path fill-rule="evenodd" clip-rule="evenodd" fill="none" d="M0,25.488c0,14.055,11.434,25.488,25.489,25.488
	c14.054,0,25.489-11.434,25.489-25.488C50.978,11.435,39.543,0,25.489,0C11.434,0,0,11.435,0,25.488z M2.039,25.488
	c0-12.931,10.52-23.45,23.45-23.45s23.45,10.519,23.45,23.45c0,12.93-10.52,23.449-23.45,23.449S2.039,38.418,2.039,25.488z"/>
<path fill-rule="evenodd" clip-rule="evenodd" fill="rgba(255, 255, 255, .6)" d="M0.022,25.512C0.022,39.566,11.457,51,25.511,51
	C39.565,51,51,39.566,51,25.512C51,11.458,39.565,0.023,25.511,0.023C11.457,0.023,0.022,11.458,0.022,25.512z M2.062,25.512
	c0-12.931,10.52-23.45,23.45-23.45s23.45,10.519,23.45,23.45c0,12.93-10.52,23.449-23.45,23.449S2.062,38.441,2.062,25.512z"/>
<path fill="none" d="M15.822,44.679c0,3.235,2.072,5.018,4.431,5.018c2.144,0,3.787-1.585,3.787-3.499
	c0-1.98-1.429-3.367-3.43-3.367c-0.357,0-0.857,0.064-0.929,0.064c0.214-2.111,2.287-4.753,4.573-6.14l-2.644-1.98
	C18.323,36.953,15.822,40.65,15.822,44.679z M27.256,44.679c0,3.235,2.072,5.018,4.43,5.018c2.145,0,3.859-1.585,3.859-3.499
	c0-1.98-1.501-3.367-3.502-3.367c-0.357,0-0.857,0.064-0.929,0.064c0.286-2.111,2.287-4.753,4.573-6.14l-2.644-1.98
	C29.757,36.953,27.256,40.65,27.256,44.679z"/>
<path fill="none" d="M15.822,44.679c0,3.235,2.072,5.018,4.431,5.018c2.144,0,3.787-1.585,3.787-3.499
	c0-1.98-1.429-3.367-3.43-3.367c-0.357,0-0.857,0.064-0.929,0.064c0.214-2.111,2.287-4.753,4.573-6.14l-2.644-1.98
	C18.323,36.953,15.822,40.65,15.822,44.679z M27.256,44.679c0,3.235,2.072,5.018,4.43,5.018c2.145,0,3.859-1.585,3.859-3.499
	c0-1.98-1.501-3.367-3.502-3.367c-0.357,0-0.857,0.064-0.929,0.064c0.286-2.111,2.287-4.753,4.573-6.14l-2.644-1.98
	C29.757,36.953,27.256,40.65,27.256,44.679z"/>
<path fill="none" d="M15.822,44.679c0,3.235,2.072,5.018,4.431,5.018c2.144,0,3.787-1.585,3.787-3.499
	c0-1.98-1.429-3.367-3.43-3.367c-0.357,0-0.857,0.064-0.929,0.064c0.214-2.111,2.287-4.753,4.573-6.14l-2.644-1.98
	C18.323,36.953,15.822,40.65,15.822,44.679z M27.256,44.679c0,3.235,2.072,5.018,4.43,5.018c2.145,0,3.859-1.585,3.859-3.499
	c0-1.98-1.501-3.367-3.502-3.367c-0.357,0-0.857,0.064-0.929,0.064c0.286-2.111,2.287-4.753,4.573-6.14l-2.644-1.98
	C29.757,36.953,27.256,40.65,27.256,44.679z"/>
<path fill="none" d="M15.822,44.679c0,3.235,2.072,5.018,4.431,5.018c2.144,0,3.787-1.585,3.787-3.499
	c0-1.98-1.429-3.367-3.43-3.367c-0.357,0-0.857,0.064-0.929,0.064c0.214-2.111,2.287-4.753,4.573-6.14l-2.644-1.98
	C18.323,36.953,15.822,40.65,15.822,44.679z M27.256,44.679c0,3.235,2.072,5.018,4.43,5.018c2.145,0,3.859-1.585,3.859-3.499
	c0-1.98-1.501-3.367-3.502-3.367c-0.357,0-0.857,0.064-0.929,0.064c0.286-2.111,2.287-4.753,4.573-6.14l-2.644-1.98
	C29.757,36.953,27.256,40.65,27.256,44.679z"/>
<path fill="#fff" d="M15.447,28.054c0,3.235,2.072,5.018,4.431,5.018c2.144,0,3.787-1.585,3.787-3.499
	c0-1.98-1.429-3.367-3.43-3.367c-0.357,0-0.857,0.064-0.929,0.064c0.214-2.111,2.287-4.753,4.573-6.14l-2.644-1.98
	C17.948,20.328,15.447,24.025,15.447,28.054z M26.881,28.054c0,3.235,2.072,5.018,4.43,5.018c2.145,0,3.859-1.585,3.859-3.499
	c0-1.98-1.501-3.367-3.502-3.367c-0.357,0-0.857,0.064-0.929,0.064c0.286-2.111,2.287-4.753,4.573-6.14l-2.644-1.98
	C29.382,20.328,26.881,24.025,26.881,28.054z"/>
<line fill="none" x1="3.75" y1="30.625" x2="74.461" y2="-40.085"/>
<line fill="none" x1="71.25" y1="65.75" x2="141.961" y2="-4.96"/>
</svg>
