<?xml version="1.0" encoding="utf-8"?>
<!-- Generator: Adobe Illustrator 18.1.1, SVG Export Plug-In . SVG Version: 6.00 Build 0)  -->
<svg version="1.1" id="DISKETTE_1_" xmlns="http://www.w3.org/2000/svg" xmlns:xlink="http://www.w3.org/1999/xlink" x="0px"
	 y="0px" viewBox="0 0 44 44" enable-background="new 0 0 44 44" xml:space="preserve">
<path fill-rule="evenodd" clip-rule="evenodd" fill="#FFFFFF" d="M43.1,41c0,1.1-0.9,2-2,2h-39c-1.1,0-2-0.9-2-2V3c0-1.1,0.9-2,2-2
	h2h2h2v2v0.7l0,0v7.5l0,0v2v4.1c0,2.2,1.8,4,3.9,4.1h17.7c2.2-0.1,3.9-1.9,3.9-4.1v-4.1v-2h0V5V3.7l0,0V3v-2h0.7H35l0,0
	c0.6,0,1.1,0.2,1.4,0.6l0,0l6,6.1l0,0c0.4,0.4,0.6,0.9,0.6,1.4V41z M31.7,17.2c0,1.1-0.9,2-2,2H27v0H14.9v0h-2.7c-1.1,0-2-0.9-2-2
	v-4.1l0,0V0.9h21.5v12.2h0V17.2z M27.7,3.7h-6v12.9h6V3.7z"/>
</svg>
