<?xml version="1.0" encoding="utf-8"?>
<!-- Generator: Adobe Illustrator 18.1.1, SVG Export Plug-In . SVG Version: 6.00 Build 0)  -->
<svg version="1.1" id="COG_1_" xmlns="http://www.w3.org/2000/svg" xmlns:xlink="http://www.w3.org/1999/xlink" x="0px" y="0px"
	 viewBox="0 0 43 42" enable-background="new 0 0 43 42" xml:space="preserve">
<path fill-rule="evenodd" clip-rule="evenodd" fill="#FFFFFF" d="M36.6,25.3c-0.4,1.3-0.9,2.4-1.5,3.5c0.1,0.1,3.5,4.3,1.4,6.3l-1,1
	c-1.6,1.5-5.5-0.9-6.4-1.5c-1.2,0.7-2.5,1.2-3.8,1.5l0.3,0c0,0-0.7,5.5-3.7,5.5h-1c-2.3,0-3.6-4.7-3.8-5.6c-1.3-0.4-2.6-0.9-3.8-1.6
	l0.2,0.2c0,0-4.4,3.4-6.5,1.3l-0.9-0.8c-1.6-1.6,1-5.7,1.5-6.5c-0.6-1.1-1.1-2.2-1.5-3.5c-0.9-0.2-5.7-1.5-5.7-3.7v-1
	c0-2.6,4.6-3.5,5.7-3.6c0.3-1.2,0.8-2.4,1.5-3.5C6.8,12.8,4.1,8.6,5.7,7l1-0.8c1.9-1.8,5.7,0.8,6.6,1.4c1.1-0.6,2.3-1.1,3.6-1.5
	c0.3-1.1,1.5-5.5,3.8-5.5h1c2.6,0,3.5,4.2,3.7,5.4c1.3,0.3,2.5,0.8,3.7,1.5c1-0.6,5-3,6.5-1.5l0.9,1c1.8,1.8-0.7,5.4-1.4,6.4
	c0.6,1.1,1.2,2.3,1.5,3.5c0.3,0,5.6,0.8,5.6,3.6v1C42.1,23.8,37.7,25,36.6,25.3z M21.1,9.6c-6.5,0-11.8,5.2-11.8,11.5
	c0,6.4,5.3,11.5,11.8,11.5S33,27.5,33,21.2C33,14.8,27.7,9.6,21.1,9.6z M21.1,28.9c-4.4,0-7.9-3.4-7.9-7.7s3.5-7.7,7.9-7.7
	s7.9,3.4,7.9,7.7S25.5,28.9,21.1,28.9z M21.1,17.3c-2.2,0-3.9,1.7-3.9,3.8S19,25,21.1,25s3.9-1.7,3.9-3.8S23.3,17.3,21.1,17.3z"/>
</svg>
