<?xml version="1.0" encoding="utf-8"?>
<!-- Generator: Adobe Illustrator 18.1.1, SVG Export Plug-In . SVG Version: 6.00 Build 0)  -->
<svg version="1.1" id="USERS_1_" xmlns="http://www.w3.org/2000/svg" xmlns:xlink="http://www.w3.org/1999/xlink" x="0px" y="0px"
	 viewBox="0 0 60 42" enable-background="new 0 0 60 42" xml:space="preserve">
<path fill-rule="evenodd" clip-rule="evenodd" fill="#FFFFFF" d="M59.7,39.3C59.7,39.3,59.7,39.3,59.7,39.3c0,1-0.8,1.8-1.8,1.8
	H44.2c1-0.2,1.8-1.1,1.8-2.2c0,0,0,0,0,0h0c0,0,0-8.2-6.1-11.2c-2.6-1.3-2.8-1-4.1-1.3l0-3.6c0,0-1.4-1.1-1.9-4.4
	c-0.9,0.3-1.2-1-1.2-1.8c0-0.8-0.5-3.2,0.6-3c-0.2-1.6-0.4-3.1-0.3-3.9c0.3-2.8,3-5.6,7.1-5.8c4.9,0.2,6.8,3.1,7.1,5.8
	c0.1,0.8-0.1,2.3-0.3,3.9c1.1-0.2,0.6,2.2,0.6,3c0,0.8-0.3,2.1-1.2,1.8c-0.4,3.4-1.9,4.4-1.9,4.4l0,3.5c0,0,0.9,0.5,4.7,2.1
	c3.8,1.5,2.6,0.4,5.7,1.9C59.7,32.7,59.7,39.3,59.7,39.3L59.7,39.3z M32.1,27.1c4.2,1.7,2.9,0.4,6.3,2.1c5.4,2.6,5.4,9.9,5.4,9.9h0
	c0,0,0,0,0,0c0,1.1-0.9,2-2,2h-39c-1.1,0-2-0.9-2-2c0,0,0,0,0,0h0c0,0,0-7.2,5.4-9.9c3.4-1.7,2.1-0.3,6.3-2c4.2-1.7,5.2-2.3,5.2-2.3
	l0-3.9c0,0-1.6-1.2-2-4.9c-1,0.3-1.3-1.1-1.4-2c-0.1-0.9-0.6-3.6,0.6-3.3c-0.2-1.8-0.4-3.4-0.3-4.3c0.3-3,3.3-6.2,7.8-6.4
	c5.4,0.2,7.5,3.4,7.8,6.4c0.1,0.9-0.1,2.5-0.3,4.3c1.2-0.2,0.7,2.5,0.6,3.3c-0.1,0.9-0.4,2.3-1.4,2c-0.5,3.7-2,4.9-2,4.9l0,3.9
	C27,24.9,28,25.4,32.1,27.1z"/>
</svg>
