<?xml version="1.0" encoding="utf-8"?>
<!-- Generator: Adobe Illustrator 15.0.0, SVG Export Plug-In . SVG Version: 6.00 Build 0)  -->
<!DOCTYPE svg PUBLIC "-//W3C//DTD SVG 1.1//EN" "http://www.w3.org/Graphics/SVG/1.1/DTD/svg11.dtd">
<svg version="1.1" id="Layer_1" xmlns="http://www.w3.org/2000/svg" xmlns:xlink="http://www.w3.org/1999/xlink" x="0px" y="0px"
	 width="11px" height="8px" viewBox="0 0 11 8" enable-background="new 0 0 11 8" xml:space="preserve">
<path fill-rule="evenodd" clip-rule="evenodd" fill="#3c455d" d="M10.739,1.417L10.739,1.417L4.705,7.451l0,0
	c-0.143,0.143-0.339,0.23-0.557,0.23s-0.414-0.088-0.557-0.23l0,0l-3.41-3.41l0,0c-0.143-0.143-0.231-0.34-0.231-0.557
	c0-0.435,0.353-0.787,0.787-0.787c0.217,0,0.414,0.088,0.557,0.23l0,0l2.854,2.854l5.478-5.478l0,0
	c0.143-0.144,0.339-0.231,0.557-0.231c0.435,0,0.787,0.352,0.787,0.787C10.97,1.078,10.882,1.274,10.739,1.417z"/>
<path fill-rule="evenodd" clip-rule="evenodd" fill="none" d="M10.739,1.417L10.739,1.417L4.705,7.451l0,0
	c-0.143,0.143-0.339,0.23-0.557,0.23s-0.414-0.088-0.557-0.23l0,0l-3.41-3.41l0,0c-0.143-0.143-0.231-0.34-0.231-0.557
	c0-0.435,0.353-0.787,0.787-0.787c0.217,0,0.414,0.088,0.557,0.23l0,0l2.854,2.854l5.478-5.478l0,0
	c0.143-0.144,0.339-0.231,0.557-0.231c0.435,0,0.787,0.352,0.787,0.787C10.97,1.078,10.882,1.274,10.739,1.417z"/>
</svg>
